# xmcd
#
# Track frame offsets:
#	150
#	12928
#	27265
#	37725
#	55234
#	67017
#	76909
#	88587
#	98087
#	109162
#	122759
#	131977
#	145004
#	154973
#	166809
#	175748
#	190104
#	204059
#	216958
#	232048
#	243251
#	256726
#	265285
#	274495
#	283440
#	293793
#	304284
#	312746
#	329394
#	341033
#
# Disc length: 4698 seconds
#
# Revision: 0
# Processed by: cddbd v1.5.2PL0 Copyright (c) Steve Scherf et al.
# Submitted via: audiograbber 1.83.01
#
DISCID=c112581e
DTITLE=Tom Jones - Icons CD2
DYEAR=1900
DGENRE=
TTITLE0=I Who Have Nothing
TTITLE1=Rock N Roll Music
TTITLE2=What's New Pussycat
TTITLE3=She Believes In Me
TTITLE4=We Can Work It Out
TTITLE5=DArlin'
TTITLE6=I'm So Lonesome I Could Cry
TTITLE7=Daughter Of Darkness
TTITLE8=Knock On Wood
TTITLE9=Too Much, Too Little, Too Late
TTITLE10=9 To 5
TTITLE11=If Ever I Would Leave You
TTITLE12=I Can't Turn You Loose
TTITLE13=Four Walls
TTITLE14=Something Bout You Baby I Like
TTITLE15=You've Lost That Lovin' Feelin
TTITLE16=Bridge Over Troubled Water
TTITLE17=Let Your Love Flow
TTITLE18=I Can't Stop Lovin You
TTITLE19=Dont Let Go
TTITLE20=Let It Be
TTITLE21=Romance Of Love
TTITLE22=Memphis, Tennessee
TTITLE23=Memphis, Tennessee
TTITLE24=I'm Leavin It Up To You
TTITLE25=On Broadway
TTITLE26=Starting Over
TTITLE27=She's A Lady
TTITLE28=Guilty
TTITLE29=You Are The Sunshine Of My Life
EXTD=
EXTT0=
EXTT1=
EXTT2=
EXTT3=
EXTT4=
EXTT5=
EXTT6=
EXTT7=
EXTT8=
EXTT9=
EXTT10=
EXTT11=
EXTT12=
EXTT13=
EXTT14=
EXTT15=
EXTT16=
EXTT17=
EXTT18=
EXTT19=
EXTT20=
EXTT21=
EXTT22=
EXTT23=
EXTT24=
EXTT25=
EXTT26=
EXTT27=
EXTT28=
EXTT29=
PLAYORDER=
